<svg xmlns="http://www.w3.org/2000/svg" width="105.001" height="102.814" viewBox="0 0 105.001 102.814">
  <g id="Grupo_1104093" data-name="Grupo 1104093" transform="translate(0 -5.331)">
    <path id="Trazado_877052" data-name="Trazado 877052" d="M243.894,223.919a7.039,7.039,0,0,1-6.5,6.255c-.281.02-.559.04-.838.058a3.94,3.94,0,0,0-3.675,3.93V242a3.184,3.184,0,0,1-5.113,2.535c-3.826-2.914-8.915-7.249-12.038-11.743a3.928,3.928,0,0,0-3.256-1.677q-14.422.073-28.844-.937a7.028,7.028,0,0,1-5.97-4.241,6.923,6.923,0,0,1-.527-2,178.8,178.8,0,0,1,0-39.025,7.028,7.028,0,0,1,6.494-6.239,383.3,383.3,0,0,1,42.966-.6q5.4.224,10.8.6a7.03,7.03,0,0,1,6.5,6.239A178.743,178.743,0,0,1,243.894,223.919Z" transform="translate(-139.96 -137.042)" fill="#fe8938"/>
    <path id="Trazado_877053" data-name="Trazado 877053" d="M180.8,187.693a182.981,182.981,0,0,0,0,39.954,7.094,7.094,0,0,0,.539,2.046,7.2,7.2,0,0,0,3.633,3.714q-.672-.044-1.343-.091a7.026,7.026,0,0,1-5.97-4.242,6.875,6.875,0,0,1-.527-2,178.671,178.671,0,0,1,0-39.025,7.026,7.026,0,0,1,6.493-6.238c.661-.046,1.322-.091,1.985-.133A7.2,7.2,0,0,0,180.8,187.693Z" transform="translate(-139.956 -140.183)" fill="#985221"/>
    <g id="Grupo_1104086" data-name="Grupo 1104086" transform="translate(54.079 48.038)">
      <path id="Trazado_877054" data-name="Trazado 877054" d="M305.554,247.561c0,2.12,2.787,3.836,4.907,3.836h16.408a3.09,3.09,0,1,0,0-6.18h1.109a3.089,3.089,0,1,0,0-6.179h1.11a3.089,3.089,0,0,0,3.088-3.028,3.143,3.143,0,0,0-3.158-3.152h-1.04a3.09,3.09,0,1,0,0-6.18h-8.69l-.029-.045,3.389-7.219a4.094,4.094,0,1,0-7.412-3.48l-1.449,3.087a9.982,9.982,0,0,1-3.963,4.381,6.559,6.559,0,0,0-3.242,5.77Z" transform="translate(-296.97 -213.579)" fill="#ffddce"/>
      <g id="Grupo_1104085" data-name="Grupo 1104085" transform="translate(8.607)">
        <path id="Trazado_877055" data-name="Trazado 877055" d="M325.924,214.892a3.913,3.913,0,0,0-.419-.022,4.1,4.1,0,0,0-3.71,2.356l-1.449,3.087a9.982,9.982,0,0,1-3.963,4.381c-1.146.672-5.268,1.715-5.421,9.524a6.773,6.773,0,0,1-.394,1.735l-.013-6.781a6.559,6.559,0,0,1,3.243-5.77,9.984,9.984,0,0,0,3.963-4.381l1.449-3.087a4.1,4.1,0,0,1,6.713-1.041Z" transform="translate(-309.552 -213.578)" fill="#ffcbbe"/>
        <path id="Trazado_877056" data-name="Trazado 877056" d="M330.044,378.506a3.089,3.089,0,0,1-3.089,3.09H310.119a5.5,5.5,0,0,1-4.456-2.276h21.292a3.09,3.09,0,0,0,2.873-1.952s0,0,0,0,0,0,0,0A3.1,3.1,0,0,1,330.044,378.506Z" transform="translate(-305.663 -343.778)" fill="#ffcbbe"/>
        <path id="Trazado_877057" data-name="Trazado 877057" d="M408.764,347.233a3.091,3.091,0,0,1-2.872,4.228h-1.184a1.138,1.138,0,1,1,0-2.276h1.184A3.088,3.088,0,0,0,408.764,347.233Z" transform="translate(-383.491 -319.823)" fill="#ffcbbe"/>
        <path id="Trazado_877058" data-name="Trazado 877058" d="M414.177,317.1a3.091,3.091,0,0,1-2.872,4.228h-1.184a1.138,1.138,0,1,1,0-2.276H411.3A3.089,3.089,0,0,0,414.177,317.1Z" transform="translate(-387.794 -295.87)" fill="#ffcbbe"/>
        <path id="Trazado_877059" data-name="Trazado 877059" d="M408.771,286.966a3.091,3.091,0,0,1-2.872,4.228h-1.184a1.138,1.138,0,0,1,0-2.276H405.9a3.089,3.089,0,0,0,2.872-1.952Z" transform="translate(-383.497 -271.916)" fill="#ffcbbe"/>
      </g>
      <path id="Trazado_877060" data-name="Trazado 877060" d="M263.7,280.239v19.269a2.42,2.42,0,0,0,2.42,2.42h4.771a2.42,2.42,0,0,0,2.42-2.42V280.239a2.42,2.42,0,0,0-2.42-2.42h-4.771A2.42,2.42,0,0,0,263.7,280.239Z" transform="translate(-263.698 -264.645)" fill="#f1f4f6"/>
      <path id="Trazado_877061" data-name="Trazado 877061" d="M263.7,353.981v6.07a2.42,2.42,0,0,0,2.42,2.419h4.771a2.419,2.419,0,0,0,2.419-2.419v-6.07a2.42,2.42,0,0,1-2.419,2.421h-4.771A2.421,2.421,0,0,1,263.7,353.981Z" transform="translate(-263.696 -325.187)" fill="#d0e2e7"/>
    </g>
    <path id="Trazado_877062" data-name="Trazado 877062" d="M1.029,49.747a6.769,6.769,0,0,0,6.248,6.014l.806.055A3.789,3.789,0,0,1,11.616,59.6v7.534a3.062,3.062,0,0,0,4.917,2.438c3.679-2.8,8.573-6.97,11.576-11.292a3.778,3.778,0,0,1,3.131-1.613q13.868.07,27.736-.9a6.759,6.759,0,0,0,5.741-4.078,6.662,6.662,0,0,0,.507-1.921,171.938,171.938,0,0,0,0-37.526,6.758,6.758,0,0,0-6.244-6,368.668,368.668,0,0,0-41.316-.581q-5.191.215-10.385.581a6.76,6.76,0,0,0-6.248,6,171.9,171.9,0,0,0,0,37.51Z" transform="translate(-0.003)" fill="#f9da41"/>
    <path id="Trazado_877063" data-name="Trazado 877063" d="M4.555,14.911a175.97,175.97,0,0,0,0,38.418A6.827,6.827,0,0,0,5.073,55.3a6.92,6.92,0,0,0,3.494,3.571q-.646-.042-1.292-.088A6.756,6.756,0,0,1,1.534,54.7a6.614,6.614,0,0,1-.507-1.921,171.806,171.806,0,0,1,0-37.525,6.757,6.757,0,0,1,6.243-6c.636-.044,1.272-.088,1.909-.128a6.92,6.92,0,0,0-4.625,5.782Z" transform="translate(0 -3.019)" fill="#edc932"/>
    <g id="Grupo_1104087" data-name="Grupo 1104087" transform="translate(18.487 18.32)">
      <path id="Trazado_877064" data-name="Trazado 877064" d="M202.024,80.387c1.945,0,3.526-2.629,3.526-5.86s-1.582-5.86-3.526-5.86S198.5,71.3,198.5,74.528,200.08,80.387,202.024,80.387Z" transform="translate(-176.277 -68.668)" fill="#21386b"/>
      <path id="Trazado_877065" data-name="Trazado 877065" d="M93.671,80.387c1.945,0,3.526-2.629,3.526-5.86s-1.582-5.86-3.526-5.86-3.526,2.629-3.526,5.86S91.727,80.387,93.671,80.387Z" transform="translate(-90.145 -68.668)" fill="#21386b"/>
      <path id="Trazado_877066" data-name="Trazado 877066" d="M122.824,146.332a1.585,1.585,0,0,0-2.076.845,10.927,10.927,0,0,1-20.14,0,1.585,1.585,0,0,0-2.92,1.231,14.1,14.1,0,0,0,25.98,0A1.584,1.584,0,0,0,122.824,146.332Z" transform="translate(-96.042 -130.306)" fill="#21386b"/>
    </g>
  </g>
</svg>
