<svg xmlns="http://www.w3.org/2000/svg" width="110.583" height="110.131" viewBox="0 0 110.583 110.131">
  <g id="Grupo_1104091" data-name="Grupo 1104091" transform="translate(-22.867 -24.165)">
    <g id="Grupo_1104089" data-name="Grupo 1104089" transform="translate(36.189 36.026)">
      <path id="Trazado_877067" data-name="Trazado 877067" d="M288.975,254.377l2.853-.351c1.563-.191,2.531.987,2.146,2.628l-.886,3.753a4.591,4.591,0,0,1-3.547,3.327l-2.853.344Zm-24.528,0-2.846-.351c-1.563-.191-2.531.987-2.146,2.628l.886,3.753a4.591,4.591,0,0,0,3.547,3.327l2.846.344Z" transform="translate(-215.463 -210.249)" fill="#ffe8ea" fill-rule="evenodd"/>
      <path id="Trazado_877068" data-name="Trazado 877068" d="M259.385,335.25H246.03c-8.1,0-14.72,3.923-14.72,12.017V370.1h43.042V355.918l5.665,6.221c2.923,3.216,10.933,4.082,11.056-3.335l.378-22.272h-9.074L282.2,349.29C274.1,339.18,278.023,335.25,259.385,335.25Z" transform="translate(-194.192 -271.833)" fill="#27bc53" fill-rule="evenodd"/>
      <path id="Trazado_877069" data-name="Trazado 877069" d="M274.62,425.466h3.388V409.977a1.694,1.694,0,0,0-3.388,0Z" transform="translate(-227.022 -327.198)" fill="#38ce65" fill-rule="evenodd"/>
      <path id="Trazado_877070" data-name="Trazado 877070" d="M289.205,335.25H275.85a15.462,15.462,0,0,0-5.2.6A58.251,58.251,0,0,0,295.132,370.1h9.041V355.916l5.665,6.221c2.923,3.216,10.933,4.082,11.056-3.335l.378-22.272H312.2l-.172,12.757C303.9,339.311,307.967,335.25,289.205,335.25Z" transform="translate(-224.012 -271.833)" fill="#38ce65" fill-rule="evenodd"/>
      <path id="Trazado_877071" data-name="Trazado 877071" d="M316.965,296.89H303.37v8.992a6.8,6.8,0,0,0,13.595,0Z" transform="translate(-248.815 -242.756)" fill="#e6d0d2" fill-rule="evenodd"/>
      <path id="Trazado_877072" data-name="Trazado 877072" d="M323.431,296.89H311.9v8.2a6.817,6.817,0,0,0,6.8,6.8,7.148,7.148,0,0,0,1.338-.131,6.829,6.829,0,0,0,3.4-5.878Z" transform="translate(-255.28 -242.756)" fill="#ffe8ea" fill-rule="evenodd"/>
      <path id="Trazado_877073" data-name="Trazado 877073" d="M292.417,251.513c-12.01,0-12.327-18.062-12.327-18.062,2.188-4.973,7.313-5.885,12.327-5.365,5.014-.52,10.144.392,12.334,5.365C304.751,233.451,304.434,251.513,292.417,251.513Z" transform="translate(-231.168 -190.503)" fill="#e6d0d2" fill-rule="evenodd"/>
      <path id="Trazado_877074" data-name="Trazado 877074" d="M294,229.245a15.083,15.083,0,0,1,8.45-1.159c5.014-.52,10.144.392,12.334,5.365,0,0-.15,8.479-4.109,13.822a9.8,9.8,0,0,1-5.014,1.3c-12.017,0-12.334-18.062-12.334-18.062a9.6,9.6,0,0,1,.673-1.263Z" transform="translate(-241.204 -190.503)" fill="#ffe8ea" fill-rule="evenodd"/>
      <path id="Trazado_877075" data-name="Trazado 877075" d="M295.048,200.546c2.168-2.093,3.881-5.907,2.722-12.6-.816-4.753-7.272-1.309-10.969-1.653-4.835-.445-5.81-3.252-11.291.22-8.532-2.127-11.221,7.361-5.208,15.748,1.166-2.5,3.327-5.515,7.3-5.8C283.524,201.959,292.12,201.04,295.048,200.546Z" transform="translate(-221.288 -157.79)" fill="#70393c" fill-rule="evenodd"/>
      <path id="Trazado_877076" data-name="Trazado 877076" d="M298.065,342.593l-5.358,3.119-5.358,3.122V336.35l5.358,3.122Z" transform="translate(-236.671 -272.667)" fill="#1e3a8a" fill-rule="evenodd"/>
      <path id="Trazado_877077" data-name="Trazado 877077" d="M331.63,342.593l5.355,3.119,5.358,3.122V336.35l-5.358,3.122Z" transform="translate(-270.236 -272.667)" fill="#1e3a8a" fill-rule="evenodd"/>
      <path id="Trazado_877078" data-name="Trazado 877078" d="M95.638,73.18a17.727,17.727,0,0,1,17.725,17.725c0,6.606-5.885,12.45-8.966,20.564H86.886c-3.08-8.114-8.966-13.96-8.966-20.564A17.721,17.721,0,0,1,95.638,73.18Z" transform="translate(-77.92 -73.18)" fill="#dfb50d" fill-rule="evenodd"/>
      <path id="Trazado_877079" data-name="Trazado 877079" d="M130.7,86.943a17.688,17.688,0,0,1,7.16,14.234c0,6.606-5.885,12.45-8.966,20.564H117.771c-3.175-6.483-7.531-11.6-7.531-17.285A17.723,17.723,0,0,1,130.7,86.943Z" transform="translate(-102.419 -83.451)" fill="#fc0" fill-rule="evenodd"/>
    </g>
    <path id="Trazado_877080" data-name="Trazado 877080" d="M53.339,25.793a1.689,1.689,0,0,1,3.376.123L56.523,31a1.689,1.689,0,0,1-3.376-.123ZM24.5,55.782a1.689,1.689,0,1,1,.116-3.376L29.7,52.6a1.689,1.689,0,0,1-.116,3.376ZM28.15,40.994a1.686,1.686,0,1,1,1.8-2.853l4.307,2.7A1.691,1.691,0,1,1,32.45,43.7ZM38.708,30.018A1.691,1.691,0,0,1,41.7,28.44l2.374,4.5a1.691,1.691,0,0,1-2.991,1.578ZM83.32,54.637a1.689,1.689,0,0,1-.116,3.376l-5.082-.2a1.689,1.689,0,1,1,.116-3.376ZM79.1,40a1.689,1.689,0,0,1,1.57,2.991l-4.5,2.374a1.689,1.689,0,0,1-1.57-2.991ZM68.121,29.442a1.691,1.691,0,1,1,2.86,1.805l-2.71,4.3a1.689,1.689,0,1,1-2.86-1.8Z" transform="translate(0 0)" fill="#fc0"/>
    <path id="Trazado_877081" data-name="Trazado 877081" d="M107.338,154.651a1.69,1.69,0,1,1-3.16-1.2,5.11,5.11,0,0,1,3-3.01,5.419,5.419,0,0,1,3.862,0,5.091,5.091,0,0,1,3,3.01,1.643,1.643,0,0,1,.109.6h.007v15.434a1.694,1.694,0,0,1-3.388,0V154.412a1.79,1.79,0,0,0-.927-.808,2,2,0,0,0-.726-.131,1.962,1.962,0,0,0-.726.131,1.769,1.769,0,0,0-1.048,1.048Zm19.412-1.2a1.69,1.69,0,0,1-3.16,1.2,1.792,1.792,0,0,0-1.043-1.05,2.082,2.082,0,0,0-1.452,0,1.774,1.774,0,0,0-.927.808v15.071a1.694,1.694,0,1,1-3.388,0V154.044a1.671,1.671,0,0,1,.116-.6,5.091,5.091,0,0,1,3-3.01,5.339,5.339,0,0,1,1.929-.356,5.4,5.4,0,0,1,1.933.356A5.127,5.127,0,0,1,126.75,153.448Z" transform="translate(-61.551 -95.445)" fill="#fff"/>
    <path id="Trazado_877082" data-name="Trazado 877082" d="M447.531,290.266v2.565h1.3a2.769,2.769,0,0,1,2.7,3.039v4.808H442.49V290.266C442.49,287.178,447.531,287.178,447.531,290.266Z" transform="translate(-318.081 -199.953)" fill="#ffe8ea" fill-rule="evenodd"/>
    <path id="Trazado_877083" data-name="Trazado 877083" d="M52.042,334.566,70.15,322.06l-2.367,12.506h3.463a3.841,3.841,0,0,1,3.84,3.835v13.176a3.842,3.842,0,0,1-3.84,3.835H40.855a3.841,3.841,0,0,1-3.835-3.835V338.4a3.841,3.841,0,0,1,3.835-3.835Z" transform="translate(-10.728 -225.809)" fill="#31718e" fill-rule="evenodd"/>
    <path id="Trazado_877084" data-name="Trazado 877084" d="M69.727,334.566,87.835,322.06l-2.367,12.506h3.463a3.841,3.841,0,0,1,3.84,3.835v11.366H64.19a3.851,3.851,0,0,1-3.84-3.84V334.568h9.377Z" transform="translate(-28.413 -225.809)" fill="#53bced" fill-rule="evenodd"/>
    <path id="Trazado_877085" data-name="Trazado 877085" d="M82.534,386.837a1.692,1.692,0,1,1,2.393-2.393l4.068,4.068,6.173-10.693a1.686,1.686,0,0,1,2.923,1.682l-7.2,12.469a1.78,1.78,0,0,1-.344.494,1.7,1.7,0,0,1-2.393,0Z" transform="translate(-44.854 -267.435)" fill="#fff"/>
    <path id="Trazado_877086" data-name="Trazado 877086" d="M137.194,254.2l-1.028,4.087c-1.021,4.06-9.919,4.46-11.037,0L124.1,254.2h13.094Z" transform="translate(-76.736 -174.37)" fill="#5f8194" fill-rule="evenodd"/>
    <path id="Trazado_877087" data-name="Trazado 877087" d="M109.247,231.36h16.5a2.507,2.507,0,0,1,2.5,2.5v1.091a2.506,2.506,0,0,1-2.5,2.5h-16.5a2.506,2.506,0,0,1-2.5-2.5v-1.091A2.5,2.5,0,0,1,109.247,231.36Z" transform="translate(-63.585 -157.057)" fill="#769fb6" fill-rule="evenodd"/>
  </g>
</svg>
